<?xml version="1.0" encoding="UTF-8" standalone="no" ?>
<!DOCTYPE svg PUBLIC "-//W3C//DTD SVG 1.1//EN" "http://www.w3.org/Graphics/SVG/1.1/DTD/svg11.dtd">
<svg xmlns="http://www.w3.org/2000/svg" xmlns:xlink="http://www.w3.org/1999/xlink" version="1.1" width="1280" height="1024" viewBox="0 0 1280 1024" xml:space="preserve">
<desc>Created with Fabric.js 5.3.0</desc>
<defs>
</defs>
<g transform="matrix(1 0 0 1 640 512)" id="background-logo"  >
<rect style="stroke: none; stroke-width: 0; stroke-dasharray: none; stroke-linecap: butt; stroke-dashoffset: 0; stroke-linejoin: miter; stroke-miterlimit: 4; fill: rgb(255,255,255); fill-opacity: 0; fill-rule: nonzero; opacity: 1;"  paint-order="stroke"  x="-640" y="-512" rx="0" ry="0" width="1280" height="1024" />
</g>
<g transform="matrix(1.9211538461538462 0 0 1.9211538461538462 640 512)" id="logo-logo"  >
<g style=""  paint-order="stroke"   >
		<g transform="matrix(1.8473064816368863 0 0 1.8473064816368863 5.684342e-14 129.49356148993178)"  >
<g style=""  paint-order="stroke"   >
		<g transform="matrix(1 0 0 1 0 0)"  >
<path style="stroke: none; stroke-width: 1; stroke-dasharray: none; stroke-linecap: butt; stroke-dashoffset: 0; stroke-linejoin: miter; stroke-miterlimit: 4; fill: rgb(176,45,45); fill-rule: nonzero; opacity: 1;"  paint-order="stroke"  transform=" translate(-99.99955462165065, -50.00044537834936)" d="M 200 0 C 200 55.228474983079344 155.22847498307934 100 100 100 C 73.44410051714243 100.1122434078155 47.943441585895975 89.6126070860885 29.16541724990374 70.83458275009627 C 10.387392913911498 52.056558414104046 -0.11224340781549813 26.555899482857598 0 2.842170943040401e-14 Z" stroke-linecap="round" />
</g>
</g>
</g>
		<g transform="matrix(-1.8473064816368863 0 0 -1.8473064816368863 0 -129.49356148993172)"  >
<g style=""  paint-order="stroke"   >
		<g transform="matrix(1 0 0 1 0 0)"  >
<path style="stroke: none; stroke-width: 1; stroke-dasharray: none; stroke-linecap: butt; stroke-dashoffset: 0; stroke-linejoin: miter; stroke-miterlimit: 4; fill: rgb(176,45,45); fill-rule: nonzero; opacity: 1;"  paint-order="stroke"  transform=" translate(-99.99955462165065, -50.00044537834936)" d="M 200 0 C 200 55.228474983079344 155.22847498307934 100 100 100 C 73.44410051714243 100.1122434078155 47.943441585895975 89.6126070860885 29.16541724990374 70.83458275009627 C 10.387392913911498 52.056558414104046 -0.11224340781549813 26.555899482857598 0 2.842170943040401e-14 Z" stroke-linecap="round" />
</g>
</g>
</g>
		<g transform="matrix(-0.21337372578869396 0 0 -0.21337372578869396 5.684342e-14 -67.22914062531987)"  >
<g style=""  paint-order="stroke"   >
		<g transform="matrix(1 0 0 1 0 0)"  >
<path style="stroke: none; stroke-width: 1; stroke-dasharray: none; stroke-linecap: butt; stroke-dashoffset: 0; stroke-linejoin: miter; stroke-miterlimit: 4; fill: rgb(255,255,255); fill-rule: nonzero; opacity: 1;"  paint-order="stroke"  transform=" translate(-99.99955462165065, -50.00044537834936)" d="M 200 0 C 200 55.228474983079344 155.22847498307934 100 100 100 C 73.44410051714243 100.1122434078155 47.943441585895975 89.6126070860885 29.16541724990374 70.83458275009627 C 10.387392913911498 52.056558414104046 -0.11224340781549813 26.555899482857598 0 2.842170943040401e-14 Z" stroke-linecap="round" />
</g>
</g>
</g>
		<g transform="matrix(0.2133412279367575 -0.0037238849855017802 0.0037238849855017824 0.2133412279367576 0 66.85837701936657)"  >
<g style=""  paint-order="stroke"   >
		<g transform="matrix(1 0 0 1 0 0)"  >
<path style="stroke: none; stroke-width: 1; stroke-dasharray: none; stroke-linecap: butt; stroke-dashoffset: 0; stroke-linejoin: miter; stroke-miterlimit: 4; fill: rgb(255,255,255); fill-rule: nonzero; opacity: 1;"  paint-order="stroke"  transform=" translate(-99.99955462165065, -50.00044537834936)" d="M 200 0 C 200 55.228474983079344 155.22847498307934 100 100 100 C 73.44410051714243 100.1122434078155 47.943441585895975 89.6126070860885 29.16541724990374 70.83458275009627 C 10.387392913911498 52.056558414104046 -0.11224340781549813 26.555899482857598 0 2.842170943040401e-14 Z" stroke-linecap="round" />
</g>
</g>
</g>
</g>
</g>
<g transform="matrix(1.9211538461538462 0 0 1.9211538461538462 640.082129326923 509.7157096538462)" id="text-logo"  >
<g style=""  paint-order="stroke"   >
		<g transform="matrix(1 0 0 1 0 0)" id="text-logo-path-0"  >
<path style="stroke: none; stroke-width: 1; stroke-dasharray: none; stroke-linecap: butt; stroke-dashoffset: 0; stroke-linejoin: miter; stroke-miterlimit: 4; fill: rgb(176,45,45); fill-rule: nonzero; opacity: 1;"  paint-order="stroke"  transform=" translate(-256.9, 19.095)" d="M 22.69 0.63 C 29.98 0.63 36.42 -3.25 39.9 -9.29 C 41.67 -12.31 42.52 -15.56 42.52 -19.1 C 42.52 -26.16 38.76 -32.55 32.66 -36.14 C 29.64 -37.91 26.28 -38.82 22.69 -38.82 C 15.39 -38.82 8.95 -35 5.47 -28.96 C 3.71 -25.94 2.85 -22.63 2.85 -19.1 C 2.85 -12.03 6.61 -5.64 12.71 -2.05 C 15.73 -0.29 19.1 0.63 22.69 0.63 Z M 12.26 -19.1 C 12.26 -24.97 16.93 -29.64 22.69 -29.64 C 28.5 -29.64 33.12 -24.97 33.12 -19.1 C 33.12 -13.22 28.44 -8.55 22.69 -8.55 C 16.87 -8.55 12.26 -13.22 12.26 -19.1 Z M 64.18 0 L 64.18 -12.83 L 73.87 -12.83 C 80.71 -13.11 86.07 -18.58 86.07 -25.54 C 86.07 -32.43 80.71 -37.91 73.87 -38.19 L 55.06 -38.19 L 55.06 0 Z M 64.18 -20.8 L 64.18 -30.21 L 72.28 -30.21 C 75.07 -30.21 76.95 -28.27 76.95 -25.48 C 76.95 -22.69 75.07 -20.8 72.28 -20.8 Z M 98.61 0 L 125.97 0 L 125.97 -7.98 L 107.73 -7.98 L 107.73 -15.11 L 122.55 -15.11 L 122.55 -23.09 L 107.73 -23.09 L 107.73 -30.21 L 125.97 -30.21 L 125.97 -38.19 L 98.61 -38.19 Z M 147.63 0 L 147.63 -23.6 L 161.54 0 L 172.71 0 L 172.71 -38.19 L 163.59 -38.19 L 163.59 -14.48 L 149.63 -38.19 L 138.51 -38.19 L 138.51 0 Z M 194.37 0 L 194.37 -15.11 L 209.19 -15.11 L 209.19 -23.09 L 194.37 -23.09 L 194.37 -30.27 L 212.61 -30.27 L 212.61 -38.25 L 189.81 -38.25 L 189.81 -38.19 L 185.25 -38.19 L 185.25 0 Z M 225.15 0 L 252.51 0 L 252.51 -7.98 L 234.27 -7.98 L 234.27 -15.11 L 249.09 -15.11 L 249.09 -23.09 L 234.27 -23.09 L 234.27 -30.21 L 252.51 -30.21 L 252.51 -38.19 L 225.15 -38.19 Z M 274.17 0 L 274.17 -23.6 L 288.08 0 L 299.25 0 L 299.25 -38.19 L 290.13 -38.19 L 290.13 -14.48 L 276.16 -38.19 L 265.05 -38.19 L 265.05 0 Z M 332.65 -12.26 L 339.55 -12.26 C 337.67 -9.97 334.82 -8.55 331.63 -8.55 C 325.81 -8.55 321.19 -13.22 321.19 -19.1 C 321.19 -24.97 325.87 -29.64 331.63 -29.64 C 335.27 -29.64 338.64 -27.7 340.52 -24.68 L 348.55 -29.36 C 344.96 -35.11 338.69 -38.82 331.63 -38.82 C 324.33 -38.82 317.89 -35 314.41 -28.96 C 312.64 -25.94 311.79 -22.63 311.79 -19.1 C 311.79 -12.03 315.55 -5.64 321.65 -2.05 C 324.67 -0.29 328.03 0.63 331.63 0.63 C 335.56 0.63 339.26 -0.51 342.34 -2.45 L 342.34 0 L 351.46 0 L 351.46 -20.23 L 332.65 -20.23 Z M 379.79 -38.76 C 370.96 -38.76 364.91 -34.14 364.91 -26.9 C 364.91 -21.15 368.28 -17.5 375 -16.02 L 382.87 -14.31 C 385.38 -13.79 386.63 -12.88 386.63 -11.57 C 386.63 -9.58 384.69 -8.55 380.82 -8.55 C 377.68 -8.55 374.49 -10.37 373.41 -13.28 L 364 -9.97 C 365.6 -3.14 372.1 0.57 380.3 0.57 C 385.6 0.57 390.62 -1.14 393.58 -4.84 C 395.07 -6.67 395.81 -8.95 395.81 -11.63 C 395.81 -17.39 392.39 -21.03 385.49 -22.57 L 377.68 -24.34 C 375.69 -24.8 374.32 -25.71 374.32 -26.9 C 374.32 -28.9 376.66 -29.64 379.68 -29.64 C 383.38 -29.64 385.78 -28.73 386.29 -25.59 L 395.07 -29.01 C 393.19 -35.4 387.31 -38.76 379.79 -38.76 Z M 417.47 0 L 417.47 -15.11 L 433.43 -15.11 L 433.43 0 L 442.55 0 L 442.55 -38.19 L 433.43 -38.19 L 433.43 -23.09 L 417.47 -23.09 L 417.47 -38.19 L 408.35 -38.19 L 408.35 0 Z M 464.21 -16.64 L 464.21 -38.19 L 455.09 -38.19 L 455.09 -16.64 C 455.09 -10.32 458.39 -4.84 463.64 -1.77 C 466.26 -0.23 469.11 0.57 472.24 0.57 C 478.4 0.57 483.93 -2.74 487.01 -8.04 C 488.55 -10.66 489.29 -13.51 489.29 -16.64 L 489.29 -38.19 L 480.17 -38.19 L 480.17 -16.64 C 480.17 -11.91 476.8 -8.32 472.24 -8.32 C 467.63 -8.32 464.21 -11.91 464.21 -16.64 Z M 510.95 0 L 510.95 -38.19 L 501.83 -38.19 L 501.83 0 Z" stroke-linecap="round" />
</g>
</g>
</g>
<g transform="matrix(1.2856707236339855 1.4275443569228174 -1.4275443569228174 1.2856707236339855 458.74673072438077 771.3369142915778)" id="tagline-b1d5669a-ad50-48d4-b85a-d052404f5d26-logo-0"  >
<g style=""  paint-order="stroke"   >
		<g transform="matrix(1 0 0 1 0 0)" id="tagline-b1d5669a-ad50-48d4-b85a-d052404f5d26-logo-0-path-0"  >
<path style="stroke: none; stroke-width: 0; stroke-dasharray: none; stroke-linecap: butt; stroke-dashoffset: 0; stroke-linejoin: miter; stroke-miterlimit: 4; fill: rgb(255,255,255); fill-rule: nonzero; opacity: 1;"  paint-order="stroke"  transform=" translate(-10.854999999999999, 8.89)" d="M 3.45 0 L 3.45 -13.46 L 9.79 0 L 11.89 0 L 18.26 -13.51 L 18.26 0 L 20.38 0 L 20.38 -17.78 L 18.21 -17.78 L 10.86 -2.18 L 3.48 -17.78 L 1.33 -17.78 L 1.33 0 Z" stroke-linecap="round" />
</g>
</g>
</g>
<g transform="matrix(1.528602189703445 1.1637041918913709 -1.163704191891371 1.528602189703445 492.46931551415736 802.3830213300319)" id="tagline-b1d5669a-ad50-48d4-b85a-d052404f5d26-logo-1"  >
<g style=""  paint-order="stroke"   >
		<g transform="matrix(1 0 0 1 0 0)" id="tagline-b1d5669a-ad50-48d4-b85a-d052404f5d26-logo-1-path-0"  >
<path style="stroke: none; stroke-width: 0; stroke-dasharray: none; stroke-linecap: butt; stroke-dashoffset: 0; stroke-linejoin: miter; stroke-miterlimit: 4; fill: rgb(255,255,255); fill-rule: nonzero; opacity: 1;"  paint-order="stroke"  transform=" translate(-7.7, 8.89)" d="M 1.33 0 L 14.07 0 L 14.07 -1.86 L 3.45 -1.86 L 3.45 -7.96 L 12.47 -7.96 L 12.47 -9.82 L 3.45 -9.82 L 3.45 -15.93 L 14.07 -15.93 L 14.07 -17.78 L 1.33 -17.78 Z" stroke-linecap="round" />
</g>
</g>
</g>
<g transform="matrix(1.702131199149468 0.8908319041624575 -0.8908319041624575 1.702131199149468 527.351964402303 824.5659848503406)" id="tagline-b1d5669a-ad50-48d4-b85a-d052404f5d26-logo-2"  >
<g style=""  paint-order="stroke"   >
		<g transform="matrix(1 0 0 1 0 0)" id="tagline-b1d5669a-ad50-48d4-b85a-d052404f5d26-logo-2-path-0"  >
<path style="stroke: none; stroke-width: 0; stroke-dasharray: none; stroke-linecap: butt; stroke-dashoffset: 0; stroke-linejoin: miter; stroke-miterlimit: 4; fill: rgb(255,255,255); fill-rule: nonzero; opacity: 1;"  paint-order="stroke"  transform=" translate(-8.760000000000002, 8.89)" d="M 9.82 0 L 9.82 -15.93 L 16.19 -15.93 L 16.19 -17.78 L 1.33 -17.78 L 1.33 -15.93 L 7.7 -15.93 L 7.7 0 Z" stroke-linecap="round" />
</g>
</g>
</g>
<g transform="matrix(1.8385380338721256 0.557323961980225 -0.5573239619802252 1.8385380338721258 570.0121579177081 842.0134696465325)" id="tagline-b1d5669a-ad50-48d4-b85a-d052404f5d26-logo-3"  >
<g style=""  paint-order="stroke"   >
		<g transform="matrix(1 0 0 1 0 0)" id="tagline-b1d5669a-ad50-48d4-b85a-d052404f5d26-logo-3-path-0"  >
<path style="stroke: none; stroke-width: 0; stroke-dasharray: none; stroke-linecap: butt; stroke-dashoffset: 0; stroke-linejoin: miter; stroke-miterlimit: 4; fill: rgb(255,255,255); fill-rule: nonzero; opacity: 1;"  paint-order="stroke"  transform=" translate(-9.9, 8.89)" d="M 3.61 0 L 5.44 -4.38 L 14.36 -4.38 L 16.19 0 L 18.47 0 L 11.04 -17.78 L 8.76 -17.78 L 1.33 0 Z M 6.21 -6.24 L 9.9 -15.05 L 13.59 -6.24 Z" stroke-linecap="round" />
</g>
</g>
</g>
<g transform="matrix(1.9096639908568411 0.2097988146211489 -0.20979881462114894 1.9096639908568414 614.4167548147198 851.0982220138183)" id="tagline-b1d5669a-ad50-48d4-b85a-d052404f5d26-logo-4"  >
<g style=""  paint-order="stroke"   >
		<g transform="matrix(1 0 0 1 0 0)" id="tagline-b1d5669a-ad50-48d4-b85a-d052404f5d26-logo-4-path-0"  >
<path style="stroke: none; stroke-width: 0; stroke-dasharray: none; stroke-linecap: butt; stroke-dashoffset: 0; stroke-linejoin: miter; stroke-miterlimit: 4; fill: rgb(255,255,255); fill-rule: nonzero; opacity: 1;"  paint-order="stroke"  transform=" translate(-8.43, 8.89)" d="M 3.45 0 L 3.45 -6.9 L 10.09 -6.9 C 13.14 -6.9 15.53 -9.29 15.53 -12.34 C 15.53 -15.39 13.14 -17.78 10.09 -17.78 L 1.33 -17.78 L 1.33 0 Z M 3.45 -8.76 L 3.45 -15.93 L 9.95 -15.93 C 12.1 -15.93 13.54 -14.49 13.54 -12.34 C 13.54 -10.19 12.1 -8.76 9.95 -8.76 Z" stroke-linecap="round" />
</g>
</g>
</g>
<g transform="matrix(1.9170295929914305 -0.12581589798919132 0.12581589798919132 1.9170295929914307 657.321412986969 852.0386905108412)" id="tagline-b1d5669a-ad50-48d4-b85a-d052404f5d26-logo-5"  >
<g style=""  paint-order="stroke"   >
		<g transform="matrix(0.9999999999999999 0 0 1 0 0)" id="tagline-b1d5669a-ad50-48d4-b85a-d052404f5d26-logo-5-path-0"  >
<path style="stroke: none; stroke-width: 0; stroke-dasharray: none; stroke-linecap: butt; stroke-dashoffset: 0; stroke-linejoin: miter; stroke-miterlimit: 4; fill: rgb(255,255,255); fill-rule: nonzero; opacity: 1;"  paint-order="stroke"  transform=" translate(-8.760000000000002, 8.89)" d="M 3.45 0 L 3.45 -7.96 L 14.07 -7.96 L 14.07 0 L 16.19 0 L 16.19 -17.78 L 14.07 -17.78 L 14.07 -9.82 L 3.45 -9.82 L 3.45 -17.78 L 1.33 -17.78 L 1.33 0 Z" stroke-linecap="round" />
</g>
</g>
</g>
<g transform="matrix(1.8616359574896026 -0.47449305829852567 0.47449305829852567 1.8616359574896026 701.9072296330166 844.9550647082035)" id="tagline-b1d5669a-ad50-48d4-b85a-d052404f5d26-logo-6"  >
<g style=""  paint-order="stroke"   >
		<g transform="matrix(1 0 0 1.0000000000000002 0 0)" id="tagline-b1d5669a-ad50-48d4-b85a-d052404f5d26-logo-6-path-0"  >
<path style="stroke: none; stroke-width: 0; stroke-dasharray: none; stroke-linecap: butt; stroke-dashoffset: 0; stroke-linejoin: miter; stroke-miterlimit: 4; fill: rgb(255,255,255); fill-rule: nonzero; opacity: 1;"  paint-order="stroke"  transform=" translate(-9.465000000000002, 8.89)" d="M 10.51 -6.85 L 10.72 -7.17 L 17.6 -17.78 L 15.05 -17.78 L 9.45 -9.13 L 3.88 -17.78 L 1.33 -17.78 L 8.17 -7.17 L 8.39 -6.85 L 8.39 0 L 10.51 0 Z" stroke-linecap="round" />
</g>
</g>
</g>
<g transform="matrix(1.747131734238804 -0.7989760971439793 0.7989760971439793 1.747131734238804 743.3998443164895 830.3102522124)" id="tagline-b1d5669a-ad50-48d4-b85a-d052404f5d26-logo-7"  >
<g style=""  paint-order="stroke"   >
		<g transform="matrix(1 0 0 1 0 0)" id="tagline-b1d5669a-ad50-48d4-b85a-d052404f5d26-logo-7-path-0"  >
<path style="stroke: none; stroke-width: 0; stroke-dasharray: none; stroke-linecap: butt; stroke-dashoffset: 0; stroke-linejoin: miter; stroke-miterlimit: 4; fill: rgb(255,255,255); fill-rule: nonzero; opacity: 1;"  paint-order="stroke"  transform=" translate(-8.245000000000001, 8.89)" d="M 3.34 -5.52 L 1.33 -4.78 C 2.57 -1.41 4.99 0.27 8.6 0.27 C 12.45 0.27 15.16 -1.94 15.16 -4.91 C 15.16 -7.03 13.85 -8.25 12.21 -8.86 C 11.39 -9.16 10.3 -9.48 8.94 -9.79 C 6.64 -10.32 5.55 -10.64 4.7 -11.49 C 4.25 -11.89 4.03 -12.45 4.03 -13.11 C 4.03 -14.94 5.87 -16.19 8.2 -16.19 C 10.62 -16.19 11.89 -15.18 12.93 -12.61 L 14.89 -13.4 C 13.64 -16.51 11.49 -18.05 8.2 -18.05 C 4.7 -18.05 1.91 -15.98 1.91 -13.11 C 1.91 -10.86 3.32 -9.53 5.02 -8.89 C 5.87 -8.55 6.98 -8.23 8.39 -7.88 C 10.54 -7.35 11.6 -7.09 12.42 -6.34 C 12.82 -5.97 13.03 -5.49 13.03 -4.91 C 13.03 -2.92 11.33 -1.59 8.6 -1.59 C 5.71 -1.59 4.27 -2.95 3.34 -5.52 Z" stroke-linecap="round" />
</g>
</g>
</g>
<g transform="matrix(1.6418903758090535 -0.9975109495225206 0.9975109495225207 1.6418903758090535 768.757370262039 816.8660417553647)" id="tagline-b1d5669a-ad50-48d4-b85a-d052404f5d26-logo-8"  >
<g style=""  paint-order="stroke"   >
		<g transform="matrix(1 0 0 1 0 0)" id="tagline-b1d5669a-ad50-48d4-b85a-d052404f5d26-logo-8-path-0"  >
<path style="stroke: none; stroke-width: 0; stroke-dasharray: none; stroke-linecap: butt; stroke-dashoffset: 0; stroke-linejoin: miter; stroke-miterlimit: 4; fill: rgb(255,255,255); fill-rule: nonzero; opacity: 1;"  paint-order="stroke"  transform=" translate(-2.39, 8.89)" d="M 3.45 0 L 3.45 -17.78 L 1.33 -17.78 L 1.33 0 Z" stroke-linecap="round" />
</g>
</g>
</g>
<g transform="matrix(1.4967290139578855 -1.2044228324672246 1.2044228324672248 1.4967290139578857 795.2106749410939 798.3089477133647)" id="tagline-b1d5669a-ad50-48d4-b85a-d052404f5d26-logo-9"  >
<g style=""  paint-order="stroke"   >
		<g transform="matrix(1 0 0 1 0 0)" id="tagline-b1d5669a-ad50-48d4-b85a-d052404f5d26-logo-9-path-0"  >
<path style="stroke: none; stroke-width: 0; stroke-dasharray: none; stroke-linecap: butt; stroke-dashoffset: 0; stroke-linejoin: miter; stroke-miterlimit: 4; fill: rgb(255,255,255); fill-rule: nonzero; opacity: 1;"  paint-order="stroke"  transform=" translate(-9.889999999999999, 8.89)" d="M 18.34 -3.9 C 16.64 -1.35 13.78 0.29 10.56 0.29 C 7.19 0.29 4.22 -1.51 2.57 -4.33 C 1.75 -5.73 1.33 -7.25 1.33 -8.89 C 1.33 -12.18 3.05 -15.16 5.89 -16.83 C 7.3 -17.65 8.86 -18.07 10.56 -18.07 C 13.85 -18.07 16.77 -16.35 18.45 -13.67 L 16.64 -12.63 C 15.39 -14.76 13.11 -16.08 10.56 -16.08 C 8.02 -16.08 5.68 -14.7 4.41 -12.5 C 3.77 -11.41 3.45 -10.19 3.45 -8.89 C 3.45 -6.26 4.83 -3.95 7.01 -2.68 C 8.1 -2.04 9.26 -1.73 10.56 -1.73 C 13.01 -1.73 15.21 -2.97 16.51 -4.96 Z" stroke-linecap="round" />
</g>
</g>
</g>
<g transform="matrix(1.2523348867248807 -1.4568766015292773 1.4568766015292776 1.252334886724881 827.4996087357912 767.0465789460042)" id="tagline-b1d5669a-ad50-48d4-b85a-d052404f5d26-logo-10"  >
<g style=""  paint-order="stroke"   >
		<g transform="matrix(1 0 0 1 0 0)" id="tagline-b1d5669a-ad50-48d4-b85a-d052404f5d26-logo-10-path-0"  >
<path style="stroke: none; stroke-width: 0; stroke-dasharray: none; stroke-linecap: butt; stroke-dashoffset: 0; stroke-linejoin: miter; stroke-miterlimit: 4; fill: rgb(255,255,255); fill-rule: nonzero; opacity: 1;"  paint-order="stroke"  transform=" translate(-8.245000000000001, 8.89)" d="M 3.34 -5.52 L 1.33 -4.78 C 2.57 -1.41 4.99 0.27 8.6 0.27 C 12.45 0.27 15.16 -1.94 15.16 -4.91 C 15.16 -7.03 13.85 -8.25 12.21 -8.86 C 11.39 -9.16 10.3 -9.48 8.94 -9.79 C 6.64 -10.32 5.55 -10.64 4.7 -11.49 C 4.25 -11.89 4.03 -12.45 4.03 -13.11 C 4.03 -14.94 5.87 -16.19 8.2 -16.19 C 10.62 -16.19 11.89 -15.18 12.93 -12.61 L 14.89 -13.4 C 13.64 -16.51 11.49 -18.05 8.2 -18.05 C 4.7 -18.05 1.91 -15.98 1.91 -13.11 C 1.91 -10.86 3.32 -9.53 5.02 -8.89 C 5.87 -8.55 6.98 -8.23 8.39 -7.88 C 10.54 -7.35 11.6 -7.09 12.42 -6.34 C 12.82 -5.97 13.03 -5.49 13.03 -4.91 C 13.03 -2.92 11.33 -1.59 8.6 -1.59 C 5.71 -1.59 4.27 -2.95 3.34 -5.52 Z" stroke-linecap="round" />
</g>
</g>
</g>
<g transform="matrix(0.5586526161024739 -1.8381347488999762 1.8381347488999764 0.5586526161024739 378.0331561460664 366.0416291944824)" id="tagline-fc0d90cc-0894-4eed-bd65-c2fee49a2d61-logo-0"  >
<g style=""  paint-order="stroke"   >
		<g transform="matrix(1 0 0 1 0 0)" id="tagline-fc0d90cc-0894-4eed-bd65-c2fee49a2d61-logo-0-path-0"  >
<path style="stroke: none; stroke-width: 0; stroke-dasharray: none; stroke-linecap: butt; stroke-dashoffset: 0; stroke-linejoin: miter; stroke-miterlimit: 4; fill: rgb(255,255,255); fill-rule: nonzero; opacity: 1;"  paint-order="stroke"  transform=" translate(-10.235000000000001, 10.39)" d="M 11.47 0 L 11.47 -18.61 L 18.92 -18.61 L 18.92 -20.78 L 1.55 -20.78 L 1.55 -18.61 L 8.99 -18.61 L 8.99 0 Z" stroke-linecap="round" />
</g>
</g>
</g>
<g transform="matrix(0.9171393905808372 -1.6881017264480025 1.6881017264480025 0.9171393905808372 399.18835969478107 315.49712300654267)" id="tagline-fc0d90cc-0894-4eed-bd65-c2fee49a2d61-logo-1"  >
<g style=""  paint-order="stroke"   >
		<g transform="matrix(1 0 0 1 0 0)" id="tagline-fc0d90cc-0894-4eed-bd65-c2fee49a2d61-logo-1-path-0"  >
<path style="stroke: none; stroke-width: 0; stroke-dasharray: none; stroke-linecap: butt; stroke-dashoffset: 0; stroke-linejoin: miter; stroke-miterlimit: 4; fill: rgb(255,255,255); fill-rule: nonzero; opacity: 1;"  paint-order="stroke"  transform=" translate(-11.55, 10.39)" d="M 21.43 -4.56 C 19.45 -1.58 16.1 0.34 12.34 0.34 C 8.4 0.34 4.93 -1.77 3.01 -5.06 C 2.05 -6.7 1.55 -8.47 1.55 -10.39 C 1.55 -14.24 3.57 -17.71 6.88 -19.66 C 8.53 -20.62 10.36 -21.12 12.34 -21.12 C 16.19 -21.12 19.6 -19.1 21.55 -15.97 L 19.45 -14.76 C 17.99 -17.24 15.32 -18.79 12.34 -18.79 C 9.37 -18.79 6.64 -17.18 5.15 -14.61 C 4.4 -13.34 4.03 -11.91 4.03 -10.39 C 4.03 -7.32 5.64 -4.62 8.19 -3.13 C 9.46 -2.39 10.82 -2.02 12.34 -2.02 C 15.2 -2.02 17.77 -3.47 19.29 -5.8 Z" stroke-linecap="round" />
</g>
</g>
</g>
<g transform="matrix(1.2670614282081398 -1.4440870603044904 1.4440870603044904 1.2670614282081398 433.6019962400713 266.14770286346175)" id="tagline-fc0d90cc-0894-4eed-bd65-c2fee49a2d61-logo-2"  >
<g style=""  paint-order="stroke"   >
		<g transform="matrix(1 0 0 1 0 0)" id="tagline-fc0d90cc-0894-4eed-bd65-c2fee49a2d61-logo-2-path-0"  >
<path style="stroke: none; stroke-width: 0; stroke-dasharray: none; stroke-linecap: butt; stroke-dashoffset: 0; stroke-linejoin: miter; stroke-miterlimit: 4; fill: rgb(255,255,255); fill-rule: nonzero; opacity: 1;"  paint-order="stroke"  transform=" translate(-12.685, 10.39)" d="M 4.03 0 L 4.03 -15.72 L 11.44 0 L 13.89 0 L 21.34 -15.79 L 21.34 0 L 23.82 0 L 23.82 -20.78 L 21.28 -20.78 L 12.68 -2.54 L 4.06 -20.78 L 1.55 -20.78 L 1.55 0 Z" stroke-linecap="round" />
</g>
</g>
</g>
<g transform="matrix(1.473995622109342 -1.2321400109541978 1.2321400109541978 1.473995622109342 474.64969970981133 250.35080493344617)" id="tagline-fc0d90cc-0894-4eed-bd65-c2fee49a2d61-logo-3"  >
<g style=""  paint-order="stroke"   >
		<g transform="matrix(1 0 0 1 0 0)" id="tagline-fc0d90cc-0894-4eed-bd65-c2fee49a2d61-logo-3-path-0"  >
<path style="stroke: none; stroke-width: 0; stroke-dasharray: none; stroke-linecap: butt; stroke-dashoffset: 0; stroke-linejoin: miter; stroke-miterlimit: 4; fill: rgb(255,255,255); fill-rule: nonzero; opacity: 1;"  paint-order="stroke"  transform=" translate(-3.1799999999999997, 1.32)" d="M 3.19 0.31 C 4.09 0.31 4.81 -0.37 4.81 -1.33 C 4.81 -2.23 4.09 -2.95 3.19 -2.95 C 2.23 -2.95 1.55 -2.29 1.55 -1.33 C 1.55 -0.37 2.23 0.31 3.19 0.31 Z" stroke-linecap="round" />
</g>
</g>
</g>
<g transform="matrix(1.6258607351558587 -1.0234300027213228 1.0234300027213228 1.6258607351558587 492.92818087624494 215.5553784099115)" id="tagline-fc0d90cc-0894-4eed-bd65-c2fee49a2d61-logo-4"  >
<g style=""  paint-order="stroke"   >
		<g transform="matrix(1 0 0 1 0 0)" id="tagline-fc0d90cc-0894-4eed-bd65-c2fee49a2d61-logo-4-path-0"  >
<path style="stroke: none; stroke-width: 0; stroke-dasharray: none; stroke-linecap: butt; stroke-dashoffset: 0; stroke-linejoin: miter; stroke-miterlimit: 4; fill: rgb(255,255,255); fill-rule: nonzero; opacity: 1;"  paint-order="stroke"  transform=" translate(-10.25, 10.39)" d="M 4.06 0 L 4.06 -17.24 L 16.28 0 L 18.95 0 L 18.95 -20.78 L 16.47 -20.78 L 16.47 -3.5 L 4.22 -20.78 L 1.55 -20.78 L 1.58 -20.75 L 1.58 0 Z" stroke-linecap="round" />
</g>
</g>
</g>
<g transform="matrix(1.7912075633120585 -0.6945556606387961 0.6945556606387963 1.7912075633120588 539.3816542802646 192.5347928662037)" id="tagline-fc0d90cc-0894-4eed-bd65-c2fee49a2d61-logo-5"  >
<g style=""  paint-order="stroke"   >
		<g transform="matrix(1 0 0 1 0 0)" id="tagline-fc0d90cc-0894-4eed-bd65-c2fee49a2d61-logo-5-path-0"  >
<path style="stroke: none; stroke-width: 0; stroke-dasharray: none; stroke-linecap: butt; stroke-dashoffset: 0; stroke-linejoin: miter; stroke-miterlimit: 4; fill: rgb(255,255,255); fill-rule: nonzero; opacity: 1;"  paint-order="stroke"  transform=" translate(-10.235000000000001, 10.235000000000001)" d="M 16.44 -20.78 L 16.44 -8.44 C 16.44 -4.62 13.65 -2.02 10.27 -2.02 C 6.64 -2.02 4.03 -4.75 4.03 -8.44 L 4.03 -20.78 L 1.55 -20.78 L 1.55 -8.44 C 1.55 -5.24 3.26 -2.45 5.92 -0.87 C 7.26 -0.09 8.68 0.31 10.27 0.31 C 13.37 0.31 16.22 -1.4 17.77 -4.06 C 18.55 -5.4 18.92 -6.85 18.92 -8.44 L 18.92 -20.78 Z" stroke-linecap="round" />
</g>
</g>
</g>
<g transform="matrix(1.8971855716274235 -0.302521085877403 0.302521085877403 1.8971855716274237 594.5644240067543 177.31230251332022)" id="tagline-fc0d90cc-0894-4eed-bd65-c2fee49a2d61-logo-6"  >
<g style=""  paint-order="stroke"   >
		<g transform="matrix(1 0 0 1.0000000000000002 0 0)" id="tagline-fc0d90cc-0894-4eed-bd65-c2fee49a2d61-logo-6-path-0"  >
<path style="stroke: none; stroke-width: 0; stroke-dasharray: none; stroke-linecap: butt; stroke-dashoffset: 0; stroke-linejoin: miter; stroke-miterlimit: 4; fill: rgb(255,255,255); fill-rule: nonzero; opacity: 1;"  paint-order="stroke"  transform=" translate(-12.685, 10.39)" d="M 4.03 0 L 4.03 -15.72 L 11.44 0 L 13.89 0 L 21.34 -15.79 L 21.34 0 L 23.82 0 L 23.82 -20.78 L 21.28 -20.78 L 12.68 -2.54 L 4.06 -20.78 L 1.55 -20.78 L 1.55 0 Z" stroke-linecap="round" />
</g>
</g>
</g>
<g transform="matrix(1.919331814382165 0.08365098261336726 -0.08365098261336727 1.9193318143821652 648.9982538341653 174.19211248301252)" id="tagline-fc0d90cc-0894-4eed-bd65-c2fee49a2d61-logo-7"  >
<g style=""  paint-order="stroke"   >
		<g transform="matrix(1 0 0 1 0 0)" id="tagline-fc0d90cc-0894-4eed-bd65-c2fee49a2d61-logo-7-path-0"  >
<path style="stroke: none; stroke-width: 0; stroke-dasharray: none; stroke-linecap: butt; stroke-dashoffset: 0; stroke-linejoin: miter; stroke-miterlimit: 4; fill: rgb(255,255,255); fill-rule: nonzero; opacity: 1;"  paint-order="stroke"  transform=" translate(-8.995000000000001, 10.39)" d="M 1.55 0 L 16.44 0 L 16.44 -2.17 L 4.03 -2.17 L 4.03 -9.3 L 14.58 -9.3 L 14.58 -11.47 L 4.03 -11.47 L 4.03 -18.61 L 16.44 -18.61 L 16.44 -20.78 L 1.55 -20.78 Z" stroke-linecap="round" />
</g>
</g>
</g>
<g transform="matrix(1.87352145067295 0.4251464153207001 -0.4251464153207001 1.87352145067295 697.1335042764343 180.64667651646727)" id="tagline-fc0d90cc-0894-4eed-bd65-c2fee49a2d61-logo-8"  >
<g style=""  paint-order="stroke"   >
		<g transform="matrix(0.9999999999999999 0 0 1 0 0)" id="tagline-fc0d90cc-0894-4eed-bd65-c2fee49a2d61-logo-8-path-0"  >
<path style="stroke: none; stroke-width: 0; stroke-dasharray: none; stroke-linecap: butt; stroke-dashoffset: 0; stroke-linejoin: miter; stroke-miterlimit: 4; fill: rgb(255,255,255); fill-rule: nonzero; opacity: 1;"  paint-order="stroke"  transform=" translate(-9.955, 10.39)" d="M 4.03 0 L 4.03 -8.65 L 10.02 -8.65 L 15.44 0 L 18.36 0 L 12.9 -8.75 C 15.91 -9.24 18.14 -11.69 18.14 -14.76 C 18.14 -18.14 15.32 -20.78 11.79 -20.78 L 1.55 -20.78 L 1.55 0 Z M 4.03 -10.82 L 4.03 -18.61 L 11.63 -18.61 C 14.14 -18.61 15.82 -17.09 15.82 -14.76 C 15.82 -12.41 14.24 -10.85 11.79 -10.79 Z" stroke-linecap="round" />
</g>
</g>
</g>
<g transform="matrix(1.7463615084163684 0.8006582182888169 -0.8006582182888169 1.7463615084163684 750.1209814922545 198.59136304039163)" id="tagline-fc0d90cc-0894-4eed-bd65-c2fee49a2d61-logo-9"  >
<g style=""  paint-order="stroke"   >
		<g transform="matrix(1 0 0 1 0 0)" id="tagline-fc0d90cc-0894-4eed-bd65-c2fee49a2d61-logo-9-path-0"  >
<path style="stroke: none; stroke-width: 0; stroke-dasharray: none; stroke-linecap: butt; stroke-dashoffset: 0; stroke-linejoin: miter; stroke-miterlimit: 4; fill: rgb(255,255,255); fill-rule: nonzero; opacity: 1;"  paint-order="stroke"  transform=" translate(-12.345, 10.39)" d="M 12.34 0.34 C 16.31 0.34 19.82 -1.77 21.71 -5.06 C 22.67 -6.7 23.14 -8.47 23.14 -10.39 C 23.14 -14.24 21.09 -17.71 17.77 -19.66 C 16.13 -20.62 14.3 -21.12 12.34 -21.12 C 8.37 -21.12 4.87 -19.04 2.98 -15.75 C 2.02 -14.11 1.55 -12.31 1.55 -10.39 C 1.55 -6.54 3.6 -3.07 6.92 -1.12 C 8.56 -0.16 10.39 0.34 12.34 0.34 Z M 12.34 -2.02 C 9.34 -2.02 6.64 -3.6 5.15 -6.17 C 4.4 -7.44 4.03 -8.87 4.03 -10.39 C 4.03 -13.46 5.61 -16.16 8.19 -17.68 C 9.46 -18.42 10.85 -18.79 12.34 -18.79 C 15.35 -18.79 18.05 -17.18 19.54 -14.61 C 20.28 -13.34 20.65 -11.91 20.65 -10.39 C 20.65 -7.32 19.07 -4.62 16.5 -3.13 C 15.23 -2.39 13.83 -2.02 12.34 -2.02 Z" stroke-linecap="round" />
</g>
</g>
</g>
<g transform="matrix(1.5537939437901 1.1298479901442156 -1.1298479901442156 1.5537939437901 796.5078767617407 225.7311396136572)" id="tagline-fc0d90cc-0894-4eed-bd65-c2fee49a2d61-logo-10"  >
<g style=""  paint-order="stroke"   >
		<g transform="matrix(1 0 0 1 0 0)" id="tagline-fc0d90cc-0894-4eed-bd65-c2fee49a2d61-logo-10-path-0"  >
<path style="stroke: none; stroke-width: 0; stroke-dasharray: none; stroke-linecap: butt; stroke-dashoffset: 0; stroke-linejoin: miter; stroke-miterlimit: 4; fill: rgb(255,255,255); fill-rule: nonzero; opacity: 1;"  paint-order="stroke"  transform=" translate(-8.995000000000001, 10.39)" d="M 1.55 0 L 16.44 0 L 16.44 -2.17 L 4.03 -2.17 L 4.03 -20.78 L 1.55 -20.78 Z" stroke-linecap="round" />
</g>
</g>
</g>
<g transform="matrix(1.2999945257673131 1.4145127548264578 -1.4145127548264578 1.2999945257673131 836.663364212578 261.5382087769905)" id="tagline-fc0d90cc-0894-4eed-bd65-c2fee49a2d61-logo-11"  >
<g style=""  paint-order="stroke"   >
		<g transform="matrix(1 0 0 1 0 0)" id="tagline-fc0d90cc-0894-4eed-bd65-c2fee49a2d61-logo-11-path-0"  >
<path style="stroke: none; stroke-width: 0; stroke-dasharray: none; stroke-linecap: butt; stroke-dashoffset: 0; stroke-linejoin: miter; stroke-miterlimit: 4; fill: rgb(255,255,255); fill-rule: nonzero; opacity: 1;"  paint-order="stroke"  transform=" translate(-12.345, 10.39)" d="M 12.34 0.34 C 16.31 0.34 19.82 -1.77 21.71 -5.06 C 22.67 -6.7 23.14 -8.47 23.14 -10.39 C 23.14 -14.24 21.09 -17.71 17.77 -19.66 C 16.13 -20.62 14.3 -21.12 12.34 -21.12 C 8.37 -21.12 4.87 -19.04 2.98 -15.75 C 2.02 -14.11 1.55 -12.31 1.55 -10.39 C 1.55 -6.54 3.6 -3.07 6.92 -1.12 C 8.56 -0.16 10.39 0.34 12.34 0.34 Z M 12.34 -2.02 C 9.34 -2.02 6.64 -3.6 5.15 -6.17 C 4.4 -7.44 4.03 -8.87 4.03 -10.39 C 4.03 -13.46 5.61 -16.16 8.19 -17.68 C 9.46 -18.42 10.85 -18.79 12.34 -18.79 C 15.35 -18.79 18.05 -17.18 19.54 -14.61 C 20.28 -13.34 20.65 -11.91 20.65 -10.39 C 20.65 -7.32 19.07 -4.62 16.5 -3.13 C 15.23 -2.39 13.83 -2.02 12.34 -2.02 Z" stroke-linecap="round" />
</g>
</g>
</g>
<g transform="matrix(0.9499954056896552 1.6698325753680405 -1.6698325753680405 0.9499954056896552 872.6573078505521 310.89117505315625)" id="tagline-fc0d90cc-0894-4eed-bd65-c2fee49a2d61-logo-12"  >
<g style=""  paint-order="stroke"   >
		<g transform="matrix(1 0 0 1 0 0)" id="tagline-fc0d90cc-0894-4eed-bd65-c2fee49a2d61-logo-12-path-0"  >
<path style="stroke: none; stroke-width: 0; stroke-dasharray: none; stroke-linecap: butt; stroke-dashoffset: 0; stroke-linejoin: miter; stroke-miterlimit: 4; fill: rgb(255,255,255); fill-rule: nonzero; opacity: 1;"  paint-order="stroke"  transform=" translate(-12.345, 10.39)" d="M 23.14 -11.01 L 12.9 -11.01 L 12.9 -8.84 L 20.38 -8.84 C 19.82 -6.61 18.42 -4.59 16.5 -3.29 C 15.23 -2.45 13.83 -2.02 12.34 -2.02 C 9.34 -2.02 6.64 -3.6 5.15 -6.17 C 4.4 -7.44 4.03 -8.87 4.03 -10.39 C 4.03 -13.46 5.61 -16.16 8.19 -17.68 C 9.46 -18.42 10.85 -18.79 12.34 -18.79 C 15.32 -18.79 17.96 -17.24 19.45 -14.76 L 21.55 -15.97 C 19.6 -19.1 16.19 -21.12 12.34 -21.12 C 8.37 -21.12 4.87 -19.04 2.98 -15.75 C 2.02 -14.11 1.55 -12.31 1.55 -10.39 C 1.55 -6.54 3.6 -3.07 6.92 -1.12 C 8.56 -0.16 10.39 0.34 12.34 0.34 C 15.75 0.34 18.73 -1.4 20.65 -4.16 L 20.65 0 L 23.14 0 Z" stroke-linecap="round" />
</g>
</g>
</g>
<g transform="matrix(0.570823523365104 1.8343916173393198 -1.8343916173393198 0.570823523365104 895.8505796292842 364.33893012774644)" id="tagline-fc0d90cc-0894-4eed-bd65-c2fee49a2d61-logo-13"  >
<g style=""  paint-order="stroke"   >
		<g transform="matrix(1 0 0 1 0 0)" id="tagline-fc0d90cc-0894-4eed-bd65-c2fee49a2d61-logo-13-path-0"  >
<path style="stroke: none; stroke-width: 0; stroke-dasharray: none; stroke-linecap: butt; stroke-dashoffset: 0; stroke-linejoin: miter; stroke-miterlimit: 4; fill: rgb(255,255,255); fill-rule: nonzero; opacity: 1;"  paint-order="stroke"  transform=" translate(-11.055, 10.39)" d="M 12.28 -8 L 12.53 -8.37 L 20.56 -20.78 L 17.58 -20.78 L 11.04 -10.67 L 4.53 -20.78 L 1.55 -20.78 L 9.55 -8.37 L 9.8 -8 L 9.8 0 L 12.28 0 Z" stroke-linecap="round" />
</g>
</g>
</g>
</svg>